<svg width="39" height="39" fill="none" xmlns="http://www.w3.org/2000/svg"><rect opacity=".25" x=".5" y=".5" width="38" height="38" rx="19" stroke="#fff"/><path fill-rule="evenodd" clip-rule="evenodd" d="M16 26h-3v-9h3v9zm-1.509-11h-.017C13.579 15 13 14.333 13 13.5c0-.852.596-1.5 1.509-1.5.912 0 1.474.648 1.491 1.5 0 .833-.58 1.5-1.509 1.5zM27 26h-2.948v-4.705c0-1.181-.427-1.988-1.494-1.988-.814 0-1.3.544-1.512 1.069-.078.188-.098.45-.098.713V26H18s.039-7.968 0-8.793h2.948v1.245C21.34 17.853 22.041 17 23.606 17 25.546 17 27 18.257 27 20.958V26z" fill="#fff"/></svg>