<svg width="81" height="15" fill="none" xmlns="http://www.w3.org/2000/svg"><path d="M8.267 10.29c0 1.186-.45 2.124-1.352 2.816-.901.691-1.994 1.037-3.278 1.037-.864 0-1.58-.216-2.148-.648-.556-.445-.865-.821-.926-1.13.136-.408.426-.864.87-1.37.445-.507.846-.815 1.204-.927.63.408 1.216 1.315 1.76 2.723.802-.025 1.203-.463 1.203-1.315 0-.47-.191-1.043-.574-1.723a15.041 15.041 0 00-1.222-1.926A15.142 15.142 0 012.563 5.81c-.37-.754-.556-1.42-.556-2 0-.94.377-1.68 1.13-2.223A4.343 4.343 0 015.712.77c.95 0 1.685.204 2.204.611.53.408.796.87.796 1.39 0 .518-.198 1.049-.593 1.592-.395.543-.79.975-1.185 1.296l-.593.482c.148.197.327.45.537.76.21.308.494.833.852 1.574.358.74.537 1.345.537 1.815zM6.841 4.217c.173-.16.328-.352.463-.574.136-.235.204-.476.204-.723 0-.259-.148-.475-.444-.648-.297-.173-.655-.26-1.075-.26-.407 0-.753.1-1.037.297-.271.185-.407.414-.407.685 0 .26.086.568.259.926.185.346.364.636.537.87l.278.353c.123-.062.315-.192.574-.39a5.53 5.53 0 00.648-.536zm8.073 2.036c.025-.025.093-.185.204-.481.58 0 1.358.172 2.334.518a25.6 25.6 0 00-.741 3.223c-.185 1.111-.278 1.907-.278 2.389 0 .47.05.704.148.704.074 0 .346-.118.815-.352l.222-.111.334.648c-.111.099-.26.222-.445.37-.173.149-.506.352-1 .612-.494.247-.938.37-1.333.37-.766 0-1.21-.346-1.334-1.037-.79.691-1.506 1.037-2.148 1.037-.63 0-1.167-.247-1.612-.74-.432-.495-.648-1.273-.648-2.335 0-1.654.34-2.957 1.019-3.907.679-.964 1.5-1.445 2.463-1.445.692 0 1.358.179 2 .537zm-2.111 6.316c.296 0 .63-.118 1-.352a22.51 22.51 0 01.87-5.168c-.37-.16-.685-.24-.944-.24-.444 0-.827.438-1.148 1.315-.309.864-.463 1.82-.463 2.87s.228 1.575.685 1.575zm5.991 1.407h-.352c0-.58.173-1.691.519-3.334.358-1.642.537-2.574.537-2.796 0-.408-.173-.84-.519-1.297l-.167-.222.019-.24c.667-.186 1.735-.278 3.204-.278.173.234.26.617.26 1.148 1.11-.827 1.993-1.241 2.648-1.241.827 0 1.315.426 1.463 1.278.333-.272.766-.55 1.296-.834.544-.296 1.025-.444 1.445-.444.432 0 .79.142 1.074.426.284.272.426.654.426 1.148 0 .494-.136 1.309-.407 2.445-.272 1.136-.408 1.901-.408 2.296 0 .383.056.575.167.575.074 0 .327-.118.76-.352l.203-.111.334.648c-.322.32-.76.63-1.316.926-.543.284-1.024.426-1.444.426-.926 0-1.39-.525-1.39-1.574 0-.383.13-1.149.39-2.297.271-1.16.407-1.914.407-2.26 0-.358-.105-.537-.315-.537-.358 0-.765.136-1.222.408-.025.247-.198 1.086-.519 2.519-.308 1.432-.463 2.543-.463 3.334-.358.16-1.197.24-2.518.24-.025-.136-.037-.463-.037-.981 0-.519.142-1.402.425-2.649.297-1.247.445-2.037.445-2.37 0-.334-.117-.5-.352-.5-.37 0-.778.148-1.222.444l-.37 1.63c-.445 1.95-.668 3.34-.668 4.167-.432.173-1.21.26-2.333.26zM35.84 2.012c0 1.136-.68 2.475-2.037 4.019l-.87-.537c.641-.988 1-1.741 1.074-2.26l-1.093-.667c0-.432.099-.858.296-1.278.21-.42.42-.747.63-.981.691 0 1.24.185 1.648.555.235.21.352.593.352 1.149zm6.282 9.482c0 .778-.346 1.414-1.038 1.908-.679.494-1.457.74-2.333.74-.877 0-1.574-.184-2.093-.555-.506-.37-.76-.697-.76-.981 0-.173.217-.451.649-.834.432-.395.796-.636 1.093-.722.617.457 1.123 1.18 1.518 2.167.457-.037.686-.253.686-.648 0-.568-.5-1.37-1.5-2.408-1-1.05-1.5-1.883-1.5-2.5 0-.618.277-1.093.833-1.426.555-.346 1.222-.52 2-.52.79 0 1.383.143 1.778.427.395.272.593.648.593 1.13 0 .469-.377 1.123-1.13 1.963.086.086.197.204.333.352.136.136.315.401.537.796.223.395.334.766.334 1.111zm-1.778-2.907c.518-.445.777-.883.777-1.315 0-.432-.296-.649-.889-.649-.283 0-.518.062-.703.186-.186.11-.278.24-.278.389 0 .271.272.654.815 1.148l.278.24zm6.902 5.093c-.087.271-.284.407-.593.407-.296 0-.636-.166-1.019-.5.37-1.086 1.155-2.833 2.352-5.241 1.198-2.42 1.976-4.229 2.334-5.427.05-.197.074-.333.074-.407 0-.185-.136-.47-.407-.852l-.148-.204.037-.24c1.05-.297 2.21-.445 3.482-.445l1.13.074c.135.185.24.47.314.852.198.938.297 3.352.297 7.242 0 1.506.13 2.568.388 3.185.1.235.198.352.297.352.099 0 .401-.123.907-.37l.241-.111.37.666a5.711 5.711 0 01-1.574 1.093c-.568.26-1.093.389-1.574.389-1.247 0-1.87-.97-1.87-2.908V9.772c-.322-.074-.81-.111-1.464-.111-.654 0-1.37.062-2.148.185-.618 1.432-1.093 2.71-1.426 3.834zm5.074-5.167l.019-2.149c0-1.877-.08-3.148-.24-3.815a.516.516 0 00-.223.037c-.346.95-.673 1.76-.982 2.426-.296.655-.623 1.358-.981 2.112l-.649 1.389h3.056zm5.19 4.019c0-.531.16-1.433.48-2.704.322-1.285.482-2.069.482-2.353 0-.296-.222-.685-.666-1.166l.018-.241c.84-.173 1.945-.26 3.316-.26.061.161.092.451.092.871s-.173 1.315-.518 2.686c-.346 1.37-.52 2.222-.52 2.555 0 .334.124.5.371.5.358 0 .772-.13 1.241-.389.05-.296.173-.864.37-1.703.445-1.976.667-3.39.667-4.242.432-.173 1.21-.259 2.334-.259h.352c0 .58-.173 1.716-.519 3.408-.345 1.68-.518 2.667-.518 2.963 0 .284.061.426.185.426.074 0 .426-.148 1.056-.444l.352.592c-1.1.914-2.063 1.37-2.89 1.37-.395 0-.734-.11-1.018-.332a1.247 1.247 0 01-.463-.87c-1 .814-1.908 1.221-2.723 1.221-.432 0-.79-.141-1.074-.425-.272-.285-.408-.686-.408-1.204zM72.4 5.938c-.024.309-.13.667-.314 1.074-.47-.049-.914-.074-1.334-.074h-.333c-.568 2.754-.852 4.47-.852 5.15 0 .357.074.536.222.536.16 0 .574-.154 1.241-.463l.333.611c-1.099.914-2.117 1.37-3.055 1.37-.433 0-.79-.135-1.075-.406-.271-.272-.407-.63-.407-1.075 0-.457.05-.969.148-1.537.111-.568.26-1.26.444-2.074.186-.828.322-1.494.408-2-.457.036-.796.074-1.019.11a3.762 3.762 0 01-.037-.592c0-.26.019-.47.056-.63h1.167c.098-.667.148-1.296.148-1.889l-.019-.574v-.056c.963-.333 1.87-.5 2.723-.5.05.247.074.556.074.926s-.105 1.068-.315 2.093h1.797zm2.313 8.205c-.852 0-1.519-.296-2-.89-.482-.604-.723-1.444-.723-2.518 0-1.37.365-2.55 1.093-3.537.74-.988 1.76-1.482 3.056-1.482l.667.037a1.48 1.48 0 01.704-.167c.975 0 1.463.92 1.463 2.76a9.546 9.546 0 001.537-.204l.296-.074.111.722c-.407.173-.957.328-1.648.463l-.37.075c-.235 1.296-.71 2.426-1.427 3.389-.716.95-1.635 1.426-2.76 1.426zm1-1.593c.519 0 .982-.333 1.39-1 .419-.667.71-1.37.87-2.111-1.322 0-1.982-.494-1.982-1.482 0-.395.08-.766.24-1.111l.093-.185a.412.412 0 00-.185-.038.303.303 0 00-.167.038c-.308.197-.598.66-.87 1.389-.272.728-.408 1.561-.408 2.5 0 1.333.34 2 1.02 2z" fill="#fff"/></svg>