<svg width="27" height="20" fill="none" xmlns="http://www.w3.org/2000/svg"><path d="M26.001 5.858h-3.045l-.846-2.116A5.668 5.668 0 0016.82.16h-6.459a5.67 5.67 0 00-5.289 3.58l-.846 2.117H1.18a.61.61 0 00-.592.758l.305 1.22a.61.61 0 00.592.463h1.021a3.233 3.233 0 00-1.123 2.441v2.442c0 .82.313 1.56.814 2.133v2.75c0 .898.729 1.627 1.627 1.627h1.628c.899 0 1.628-.729 1.628-1.627v-1.628H20.1v1.628c0 .898.73 1.627 1.628 1.627h1.628c.899 0 1.627-.729 1.627-1.627v-2.75c.5-.573.814-1.313.814-2.133V10.74c0-.977-.44-1.844-1.122-2.441h1.02a.61.61 0 00.592-.462l.306-1.221A.61.61 0 0026 5.858zM8.094 4.95a2.442 2.442 0 012.267-1.535h6.46c.998 0 1.896.608 2.267 1.535l1.014 2.534H7.08L8.093 4.95zm-2.641 8.22c-.977 0-1.628-.648-1.628-1.622 0-.973.651-1.622 1.628-1.622.977 0 2.441 1.46 2.441 2.433 0 .974-1.464.812-2.441.812zm16.276 0c-.976 0-2.441.163-2.441-.81 0-.974 1.465-2.434 2.441-2.434.977 0 1.628.649 1.628 1.622 0 .974-.651 1.623-1.628 1.623z" fill="#343A40"/></svg>